<svg width="15" height="11" viewBox="0 0 15 11" fill="none" xmlns="http://www.w3.org/2000/svg">
<path fill-rule="evenodd" clip-rule="evenodd" d="M15 5.26196C15 5.26196 12 10.375 7.5 10.375C3 10.375 0 5.26196 0 5.26196C0 5.26196 3 0.625 7.5 0.625C12 0.625 15 5.26196 15 5.26196ZM7.5 2.875C8.94707 2.875 10.125 4.05325 10.125 5.50082C10.125 6.94757 8.94707 8.125 7.5 8.125C6.05293 8.125 4.875 6.95085 4.875 5.50082C4.875 4.05325 6.05293 2.875 7.5 2.875ZM7.49858 6.81285C8.22277 6.81285 8.80965 6.22181 8.80965 5.4967C8.80965 4.77104 8.22222 4.18 7.49858 4.18C6.77549 4.18 6.1875 4.76939 6.1875 5.4956C6.1875 6.22181 6.77549 6.81285 7.49858 6.81285Z" fill="#BCBFC2"/>
</svg>
